<?xml version="1.0" standalone="no"?>
<!DOCTYPE svg PUBLIC "-//W3C//DTD SVG 20010904//EN"
 "http://www.w3.org/TR/2001/REC-SVG-20010904/DTD/svg10.dtd">
<svg version="1.0" xmlns="http://www.w3.org/2000/svg"
 width="16.000000pt" height="16.000000pt" viewBox="0 0 16.000000 16.000000"
 preserveAspectRatio="xMidYMid meet">

<g transform="translate(0.000000,16.000000) scale(0.100000,-0.100000)"
fill="#000000" stroke="none">
<path d="M11 134 c0 -11 3 -14 6 -6 5 13 24 17 22 5 -1 -5 -1 -29 0 -55 l1
-48 40 0 c33 0 40 3 40 20 0 11 -4 20 -10 20 -5 0 -10 -4 -10 -10 0 -5 -9 -10
-20 -10 -16 0 -20 7 -20 35 0 28 4 35 20 35 11 0 20 -4 20 -10 0 -5 5 -10 10
-10 6 0 10 9 10 20 0 16 -7 20 -32 20 -18 0 -43 3 -55 6 -18 5 -23 2 -22 -12z"/>
</g>
</svg>
